<svg xmlns="http://www.w3.org/2000/svg" xmlns:xlink="http://www.w3.org/1999/xlink" width="500" zoomAndPan="magnify" viewBox="0 0 375 374.999991" height="500" preserveAspectRatio="xMidYMid meet" version="1.0"><defs><clipPath id="0346b04529"><path d="M 111.332031 170 L 264.367188 170 L 264.367188 252.527344 L 111.332031 252.527344 Z M 111.332031 170 " clip-rule="nonzero"/></clipPath><clipPath id="7ed5a1e948"><path d="M 105.875 89.8125 L 269.375 89.8125 L 269.375 245.585938 L 105.875 245.585938 Z M 105.875 89.8125 " clip-rule="nonzero"/></clipPath></defs><g clip-path="url(#0346b04529)"><path fill="#b48bcc" d="M 125.175781 170.125 C 125.195312 171.007812 124.742188 172.449219 124.980469 173.675781 C 126.148438 179.765625 131.265625 185.710938 129.0625 192.117188 C 127.796875 195.800781 124.457031 197.800781 122.097656 200.675781 C 120.140625 203.058594 117.683594 212.449219 112.917969 207.421875 C 109.722656 204.046875 113.0625 191.242188 114.382812 186.816406 Z M 247.289062 217.757812 C 247.320312 217.757812 247.1875 217.523438 247.171875 217.484375 C 246.601562 215.949219 246.277344 214.285156 245.953125 212.6875 C 245.144531 208.679688 244.585938 204.460938 244.679688 200.363281 C 244.804688 194.660156 247.480469 196.621094 251.289062 194.722656 C 254.921875 192.90625 256.480469 181.527344 260.410156 183.539062 C 262.421875 184.566406 263.210938 187.421875 263.691406 189.421875 C 266.863281 202.539062 254.347656 214.738281 244.503906 221.667969 Z M 143.082031 231.269531 C 142.414062 231.277344 144.128906 230.378906 144.433594 229.78125 C 145.082031 228.503906 145.542969 227.144531 145.933594 225.769531 C 146.988281 222.027344 147.949219 213.566406 153.589844 214.042969 C 154.6875 214.136719 174.628906 233.832031 158.769531 232.226562 Z M 116.550781 227.257812 C 116.859375 227.386719 116.5 227.925781 116.542969 228.257812 C 116.90625 230.960938 117.824219 233.585938 119.003906 236.03125 C 120.90625 239.980469 125.398438 244.003906 125.960938 248.421875 C 127.113281 257.519531 116.429688 249.058594 114.394531 246.300781 C 111.707031 242.65625 113.945312 235.683594 114.6875 231.707031 L 116.550781 227.257812 " fill-opacity="1" fill-rule="evenodd"/></g><path fill="#5e6697" d="M 228.832031 147.089844 C 228.34375 149.425781 229.800781 151.777344 227.601562 153.015625 C 222.082031 156.113281 213.203125 154.359375 210.832031 148.203125 C 210.542969 147.457031 210.425781 146.664062 210.445312 145.863281 C 210.355469 145.816406 210.269531 145.765625 210.191406 145.691406 C 203.21875 139.277344 195.417969 143.40625 194.011719 144.242188 C 193.914062 145.640625 193.511719 147.066406 192.722656 148.460938 C 191.710938 150.246094 190.222656 152.128906 188.269531 152.964844 C 176.445312 158.035156 162.15625 145.535156 173.789062 135.015625 C 175.832031 133.171875 178.234375 132.007812 180.960938 131.589844 C 181.980469 131.433594 183.105469 131.632812 184.167969 131.753906 C 188.238281 132.210938 193.035156 136.648438 193.898438 141.910156 C 196.800781 140.460938 204.050781 137.859375 210.882812 143.503906 C 211.925781 140.367188 214.691406 137.402344 217.636719 136.1875 C 223.519531 133.757812 228.59375 137.222656 230.800781 141.625 C 230.851562 141.722656 230.464844 142.09375 230.417969 142.152344 C 229.339844 143.492188 229.175781 145.429688 228.832031 147.089844 " fill-opacity="1" fill-rule="evenodd"/><g clip-path="url(#7ed5a1e948)"><path stroke-linecap="round" transform="matrix(0.0248028, 0, 0, -0.0247263, 105.876113, 252.528235)" fill="none" stroke-linejoin="round" d="M 4963.956731 2990.43205 C 4967.736548 2991.695887 5032.623399 2946.829678 5043.175387 2943.670086 C 5174.681505 2905.597001 5330.441446 3031.822707 5397.218205 3139.722779 M 5104.912391 4524.414038 C 5127.906275 4496.609627 5385.248786 4040.048562 5492.343589 3925.671326 M 4991.990371 4241.9465 C 5031.520953 4073.382259 5176.571413 3843.837889 5285.713616 3746.048512 M 4943.16774 2164.198703 C 4953.562236 2117.12078 4968.209025 2070.832755 4984.430738 2025.492608 C 5034.04083 1885.680655 5097.825235 1752.187887 5168.066826 1621.696731 C 5398.005667 1194.361893 5574.554599 814.420938 5638.653988 330.213441 M 5544.473559 2924.080615 C 5480.059185 3083.16608 5361.624932 3204.652398 5252.640222 3333.563757 C 5036.088231 3590.12264 4969.626456 3898.340854 4984.430738 4237.523071 C 4995.140218 4483.813279 5262.877225 4714.463506 5263.192209 4716.043302 L 5263.507194 4713.831587 C 5257.994962 4712.251791 5533.921571 4358.219491 5647.631053 4252.689113 C 5893.634114 4024.40858 6353.984273 3671.956076 6483.757975 3367.371393 C 6670.071433 2930.08384 6431.470513 2168.306173 6148.61424 1803.847219 C 5965.293136 1567.667706 5707.478148 1366.559666 5453.285484 1211.265711 M 4635.74266 5849.231026 C 4644.877217 5818.898941 4656.216666 5789.198775 4667.871101 5759.814568 C 4697.794648 5684.774254 4730.238074 5610.839798 4762.681499 5537.063321 C 4829.300766 5385.718857 4898.597403 5235.322271 4944.112695 5076.078827 C 4994.982726 4897.561871 5037.033185 4694.874034 5080.973553 4514.461323 M 4079.322163 6316.850663 C 4100.898616 6330.12095 4124.364977 6340.547605 4148.146323 6349.236483 C 4217.285468 6374.355241 4290.676906 6390.78512 4362.808405 6404.213386 C 4629.915443 6453.661003 4898.439911 6448.921615 5167.594349 6425.066694 C 5234.843585 6418.90549 5303.037776 6413.060244 5370.601997 6413.060244 C 5372.80689 6413.060244 5389.343587 6415.587918 5390.446034 6413.376204 C 5392.020957 6410.69055 5385.878755 6403.265509 5384.776309 6401.369753 C 5334.06377 6322.853889 5293.745727 6236.597023 5255.002607 6151.761974 C 5195.470496 6021.744757 4971.20138 5373.870387 4865.838993 5301.357747 M 2420.612661 6276.091925 C 2462.348135 6298.840988 2636.849667 6363.928586 2680.790034 6381.780282 C 2812.13866 6435.177389 2953.409304 6470.248862 3094.522456 6485.098945 C 3347.770166 6511.639519 3601.33286 6476.094108 3843.556105 6400.737835 C 3976.479654 6359.505157 4104.205955 6287.940395 4239.964367 6260.293964 M 1798.202867 3142.724392 C 1798.832836 3142.882371 1806.549962 3134.193493 1807.179931 3133.561574 C 2490.69676 2468.783386 3944.036229 2602.908073 4141.216659 2624.709259 C 4441.082107 2657.884976 5093.887926 2873.053202 5141.60811 3478.747016 M 1027.435272 3826.460132 C 1018.143223 3822.668622 677.80224 3165.947394 648.036185 3116.815736 C 262.967372 2478.420142 -408.73753 1616.799364 487.236488 1076.193147 M 1565.744148 5450.964435 C 1547.790019 5443.539394 1355.964329 5017.942331 1340.372585 4984.292675 C 1191.857293 4663.436092 1089.329768 4345.265163 1052.161572 3993.286598 C 1030.585119 3789.176945 1035.30989 3571.165087 985.699798 3371.162904 M 1427.623351 5181.135266 C 1434.710507 5178.449612 1399.274727 5250.330334 1389.037724 5289.035338 C 1366.043839 5375.608163 1347.302249 5463.444824 1329.97809 5551.281486 C 1310.291545 5651.282577 1170.28084 6465.825433 1207.134051 6531.860909 C 1213.591238 6543.235441 1510.621823 6535.65242 1539.12794 6535.65242 C 1885.926109 6535.65242 2335.566788 6527.59546 2661.418474 6387.941487 " stroke="#5e6697" stroke-width="85" stroke-opacity="1" stroke-miterlimit="10"/></g><path stroke-linecap="round" transform="matrix(0.0248028, 0, 0, -0.0247263, 105.876113, 252.528235)" fill="none" stroke-linejoin="round" d="M 3061.921538 1228.011633 C 3055.936828 1234.172838 3074.363434 1216.005182 3080.978113 1210.633875 C 3092.632547 1201.313078 3103.971997 1191.834301 3115.153955 1182.039564 C 3145.707472 1155.183029 3174.371081 1125.640841 3201.617258 1095.466734 C 3287.293101 1000.678963 3365.724294 887.565556 3414.546925 768.764883 M 2798.12184 1157.868683 C 2797.491871 1154.393131 2835.290036 1127.536596 2838.439884 1124.692963 C 2971.363433 1006.208249 3056.72429 866.870226 3158.779337 725.320488 M 437.626396 1097.678448 C 449.28083 1128.484474 410.53771 1037.172255 401.088169 1005.418351 C 379.669209 934.011564 361.872572 861.02498 348.013245 787.722438 C 310.845049 590.563874 253.045354 324.684177 315.254835 125.155919 M 4857.964375 3517.610239 C 4873.713611 3495.967031 4948.994958 3487.278152 4973.248781 3477.799375 C 5055.302298 3445.413553 5129.323706 3397.861688 5205.07753 3353.627395 M 4799.849696 3642.888076 C 4796.384864 3633.567279 4819.53624 3645.25777 4829.458259 3646.363628 C 4851.507189 3648.891302 4873.713611 3651.576955 4895.762541 3653.78867 C 4957.18456 3659.791895 5002.542359 3640.044443 5063.806886 3632.145462 M 4698.109633 3743.205134 C 4690.392508 3739.729582 4711.338991 3753.789768 4718.426147 3758.529157 C 4741.735016 3773.53722 4765.988839 3787.281447 4790.08517 3801.025674 C 4837.647861 3827.882209 4927.575997 3899.288996 4984.273246 3901.97465 M 3165.866493 3579.854208 C 3166.496463 3583.32976 3142.085148 3570.059472 3115.311447 3558.053021 C 3080.978113 3542.728998 3047.117256 3526.457098 3013.2564 3510.185197 C 2914.823677 3462.949291 2818.438354 3411.447936 2723.470463 3357.418906 C 2431.637126 3191.698287 2126.101954 3002.438704 1901.832837 2747.61758 M 2837.809914 3634.989095 C 2839.227345 3629.301829 2825.997987 3634.989095 2820.17077 3633.883238 C 2774.970464 3624.56244 2730.557619 3610.502254 2686.617252 3596.758028 C 2582.357311 3564.372206 2479.672295 3526.931036 2378.089724 3486.646234 C 2074.444461 3366.265765 1768.594304 3228.981477 1494.557603 3049.358651 M 3068.536217 3790.599019 C 3068.378725 3785.543671 3060.661599 3797.234163 3055.936828 3798.813959 C 3044.282394 3802.60547 3031.683005 3803.869307 3019.713586 3805.449103 C 2978.608081 3810.82041 2937.187591 3814.137982 2895.924594 3816.665656 C 2774.183002 3824.248678 2651.811441 3821.563024 2529.912356 3816.349697 C 2149.410822 3800.393755 1719.771673 3777.486711 1368.09124 3611.134173 M 422.349637 1118.057819 C 427.389393 1124.850943 434.791533 1106.683287 441.721197 1101.943898 C 462.352696 1087.409773 483.929149 1074.297465 505.820586 1061.659095 C 560.312942 1030.379131 618.270129 1003.838555 676.542301 980.299592 C 857.973496 907.155029 1049.799187 869.081941 1244.617232 858.023368 C 1509.834361 842.857324 1779.933753 827.059362 2045.623359 823.109872 C 2434.157004 817.264626 2700.791564 843.173283 3074.835911 707.626771 L 3077.985758 706.520914 C 3393.600441 633.69231 3571.409312 795.937378 3380.371083 1114.266308 C 3306.822153 1236.700512 3195.632549 1335.911712 3086.490346 1425.486156 C 2624.092786 1804.953199 2060.742625 2004.797416 1459.751792 1953.769999 C 1282.57289 1938.603956 1108.071359 1904.164399 935.302243 1862.2998 C 922.702855 1859.298187 772.140162 1831.335795 769.305299 1817.907527 M 4001.993416 3898.499098 C 4013.332866 3860.42601 4051.288524 3766.586117 4073.652438 3733.410397 C 4211.45825 3528.510833 4369.423084 3660.897753 4391.629507 3671.166428 M 4001.205954 3909.557671 C 4000.103508 3909.715651 3998.056107 3895.181526 3997.898615 3893.917689 C 3994.591275 3877.329829 3990.338981 3860.899949 3985.771703 3844.628048 C 3973.802284 3802.131531 3956.950602 3760.424912 3933.484241 3722.983742 C 3863.557634 3612.24003 3693.308396 3577.484514 3581.173838 3645.731709 " stroke="#5e6697" stroke-width="85" stroke-opacity="1" stroke-miterlimit="10"/><path fill="#e06cb9" d="M 233.960938 98.449219 C 233.902344 97.152344 219.703125 96.085938 217.335938 99.160156 C 216.691406 99.992188 224.054688 107.863281 226.59375 111.148438 C 228.285156 113.339844 234.078125 101.152344 233.960938 98.449219 Z M 144.351562 98.5625 C 142.839844 99.960938 143.507812 115.265625 146.722656 115.199219 C 149.9375 115.132812 164.027344 100.9375 163.628906 98.164062 C 163.238281 95.394531 146.875 96.234375 144.351562 98.5625 Z M 208.292969 153.121094 C 208.007812 153.445312 207.6875 153.742188 207.363281 154.023438 C 206.8125 154.496094 206.207031 154.964844 205.546875 155.273438 L 205.269531 155.347656 C 205.28125 155.554688 204.886719 155.1875 204.707031 155.085938 C 204.359375 154.890625 204.027344 154.667969 203.714844 154.421875 C 203.179688 154.007812 200.484375 151.59375 201.414062 150.824219 C 202.222656 150.15625 204.128906 150.535156 205.070312 150.578125 C 207.046875 150.671875 210.875 150.140625 208.292969 153.121094 " fill-opacity="1" fill-rule="evenodd"/></svg>