<svg xmlns="http://www.w3.org/2000/svg" xmlns:xlink="http://www.w3.org/1999/xlink" width="500" zoomAndPan="magnify" viewBox="0 0 375 374.999991" height="500" preserveAspectRatio="xMidYMid meet" version="1.0"><defs><clipPath id="2232589255"><path d="M 111.332031 170 L 264.367188 170 L 264.367188 252.527344 L 111.332031 252.527344 Z M 111.332031 170 " clip-rule="nonzero"/></clipPath><clipPath id="3c4d2f6460"><path d="M 105.875 89.8125 L 269.375 89.8125 L 269.375 245.585938 L 105.875 245.585938 Z M 105.875 89.8125 " clip-rule="nonzero"/></clipPath></defs><rect x="-37.5" width="450" fill="#ffffff" y="-37.499999" height="449.999989" fill-opacity="1"/><rect x="-37.5" width="450" fill="#ffffff" y="-37.499999" height="449.999989" fill-opacity="1"/><g clip-path="url(#2232589255)"><path fill="#b48bcc" d="M 125.175781 170.125 C 125.195312 171.007812 124.742188 172.449219 124.980469 173.675781 C 126.148438 179.765625 131.265625 185.710938 129.0625 192.117188 C 127.796875 195.800781 124.457031 197.800781 122.097656 200.675781 C 120.140625 203.058594 117.683594 212.449219 112.917969 207.421875 C 109.722656 204.046875 113.0625 191.242188 114.382812 186.816406 Z M 247.289062 217.757812 C 247.320312 217.757812 247.1875 217.523438 247.171875 217.484375 C 246.601562 215.949219 246.277344 214.285156 245.953125 212.6875 C 245.144531 208.675781 244.585938 204.460938 244.679688 200.363281 C 244.804688 194.660156 247.480469 196.621094 251.289062 194.722656 C 254.921875 192.90625 256.480469 181.527344 260.410156 183.539062 C 262.421875 184.566406 263.210938 187.421875 263.691406 189.421875 C 266.863281 202.539062 254.347656 214.738281 244.503906 221.667969 Z M 143.082031 231.269531 C 142.414062 231.277344 144.128906 230.378906 144.433594 229.78125 C 145.082031 228.503906 145.542969 227.144531 145.933594 225.769531 C 146.988281 222.027344 147.949219 213.566406 153.589844 214.042969 C 154.6875 214.136719 174.628906 233.832031 158.769531 232.226562 Z M 116.550781 227.257812 C 116.859375 227.386719 116.5 227.925781 116.542969 228.257812 C 116.90625 230.960938 117.824219 233.585938 119.003906 236.03125 C 120.90625 239.980469 125.398438 244.003906 125.960938 248.421875 C 127.113281 257.519531 116.429688 249.058594 114.394531 246.300781 C 111.707031 242.65625 113.945312 235.683594 114.6875 231.707031 L 116.550781 227.257812 " fill-opacity="1" fill-rule="evenodd"/></g><path fill="#5e6697" d="M 228.832031 147.089844 C 228.34375 149.425781 229.800781 151.777344 227.601562 153.015625 C 222.082031 156.113281 213.203125 154.359375 210.832031 148.203125 C 210.542969 147.457031 210.425781 146.664062 210.445312 145.863281 C 210.355469 145.816406 210.269531 145.765625 210.191406 145.691406 C 203.21875 139.277344 195.417969 143.40625 194.011719 144.242188 C 193.914062 145.640625 193.511719 147.066406 192.722656 148.460938 C 191.710938 150.246094 190.222656 152.128906 188.269531 152.964844 C 176.445312 158.035156 162.15625 145.535156 173.789062 135.015625 C 175.832031 133.171875 178.234375 132.007812 180.960938 131.589844 C 181.980469 131.433594 183.105469 131.632812 184.167969 131.75 C 188.238281 132.210938 193.035156 136.648438 193.898438 141.910156 C 196.800781 140.460938 204.050781 137.859375 210.882812 143.503906 C 211.925781 140.367188 214.691406 137.402344 217.636719 136.1875 C 223.519531 133.757812 228.59375 137.222656 230.800781 141.625 C 230.851562 141.722656 230.464844 142.09375 230.417969 142.152344 C 229.339844 143.492188 229.175781 145.429688 228.832031 147.089844 " fill-opacity="1" fill-rule="evenodd"/><g clip-path="url(#3c4d2f6460)"><path stroke-linecap="round" transform="matrix(0.0248028, 0, 0, -0.0247263, 105.876113, 252.528178)" fill="none" stroke-linejoin="round" d="M 4963.956731 2990.42972 C 4967.736548 2991.693557 5032.623399 2946.827349 5043.175387 2943.667757 C 5174.681505 2905.594671 5330.441446 3031.820378 5397.218205 3139.720449 M 5104.912391 4524.411708 C 5127.906275 4496.607297 5385.248786 4040.046232 5492.343589 3925.668996 M 4991.990371 4241.94417 C 5031.520953 4073.379929 5176.571413 3843.83556 5285.713616 3746.046183 M 4943.16774 2164.196374 C 4953.562236 2117.118451 4968.209025 2070.830426 4984.430738 2025.490278 C 5034.04083 1885.678326 5097.825235 1752.185558 5168.066826 1621.694402 C 5398.005667 1194.359564 5574.554599 814.418608 5638.653988 330.211111 M 5544.473559 2924.078285 C 5480.059185 3083.16375 5361.624932 3204.650068 5252.640222 3333.561428 C 5036.088231 3590.12031 4969.626456 3898.338524 4984.430738 4237.520741 C 4995.140218 4483.810949 5262.877225 4714.461176 5263.192209 4716.040972 L 5263.507194 4713.829258 C 5257.994962 4712.249462 5533.921571 4358.217161 5647.631053 4252.686784 C 5893.634114 4024.406251 6353.984273 3671.953747 6483.757975 3367.369064 C 6670.071433 2930.08151 6431.470513 2168.303844 6148.61424 1803.844889 C 5965.293136 1567.665376 5707.478148 1366.715316 5453.285484 1211.263382 M 4635.74266 5849.228696 C 4644.877217 5818.896611 4656.216666 5789.196445 4667.871101 5759.812238 C 4697.794648 5684.771925 4730.238074 5610.837468 4762.681499 5537.060992 C 4829.300766 5385.716528 4898.597403 5235.319942 4944.112695 5076.076497 C 4994.982726 4897.559541 5037.033185 4694.871705 5080.973553 4514.458993 M 4079.322163 6316.848334 C 4100.898616 6330.118621 4124.364977 6340.545275 4148.146323 6349.234153 C 4217.285468 6374.352911 4290.676906 6390.78279 4362.808405 6404.211057 C 4629.915443 6453.658674 4898.439911 6448.919286 5167.594349 6425.064365 C 5234.843585 6418.90316 5303.037776 6413.057915 5370.601997 6413.057915 C 5372.80689 6413.057915 5389.343587 6415.585589 5390.446034 6413.373874 C 5392.020957 6410.688221 5385.878755 6403.263179 5384.776309 6401.367424 C 5334.06377 6322.851559 5293.745727 6236.594693 5255.002607 6151.759644 C 5195.470496 6021.742427 4971.20138 5373.868057 4865.838993 5301.355418 M 2420.612661 6276.089595 C 2462.348135 6298.838659 2636.849667 6363.926257 2680.790034 6381.777953 C 2812.13866 6435.17506 2953.409304 6470.246533 3094.522456 6485.096616 C 3347.770166 6511.63719 3601.33286 6476.091778 3843.556105 6400.735505 C 3976.479654 6359.502828 4104.205955 6287.938066 4239.964367 6260.291634 M 1798.202867 3142.722062 C 1798.832836 3142.880042 1806.549962 3134.191163 1807.179931 3133.559245 C 2490.69676 2468.781057 3944.036229 2602.905744 4141.216659 2624.706929 C 4441.082107 2657.882647 5093.887926 2873.050872 5141.60811 3478.744687 M 1027.435272 3826.457803 C 1018.143223 3822.666292 677.80224 3165.945064 648.036185 3116.813406 C 262.967372 2478.417813 -408.73753 1616.797034 487.236488 1076.190818 M 1565.744148 5450.962106 C 1547.790019 5443.537064 1355.964329 5017.940002 1340.372585 4984.290345 C 1191.857293 4663.433763 1089.329768 4345.262834 1052.161572 3993.284268 C 1030.585119 3789.174616 1035.30989 3571.162757 985.699798 3371.160574 M 1427.623351 5181.132936 C 1434.710507 5178.447283 1399.274727 5250.328004 1389.037724 5289.033008 C 1366.043839 5375.605833 1347.302249 5463.442495 1329.97809 5551.279156 C 1310.291545 5651.280248 1170.28084 6465.823104 1207.134051 6531.85858 C 1213.591238 6543.233111 1510.621823 6535.65009 1539.12794 6535.65009 C 1885.926109 6535.65009 2335.566788 6527.59313 2661.418474 6387.939157 " stroke="#5e6697" stroke-width="85" stroke-opacity="1" stroke-miterlimit="10"/></g><path stroke-linecap="round" transform="matrix(0.0248028, 0, 0, -0.0247263, 105.876113, 252.528178)" fill="none" stroke-linejoin="round" d="M 3061.921538 1228.009304 C 3055.936828 1234.170509 3074.363434 1216.002853 3080.978113 1210.631546 C 3092.632547 1201.310748 3103.971997 1191.831971 3115.153955 1182.037235 C 3145.707472 1155.1807 3174.371081 1125.638511 3201.617258 1095.464404 C 3287.293101 1000.676633 3365.724294 887.563227 3414.546925 768.762554 M 2798.12184 1157.866353 C 2797.491871 1154.390802 2835.290036 1127.534267 2838.439884 1124.690634 C 2971.363433 1006.20592 3056.72429 866.867897 3158.779337 725.318159 M 437.626396 1097.676119 C 449.28083 1128.482144 410.53771 1037.169925 401.088169 1005.416022 C 379.669209 934.009234 361.872572 861.022651 348.013245 787.720108 C 310.845049 590.561545 253.045354 324.681847 315.254835 125.15359 M 4857.964375 3517.607909 C 4873.713611 3495.964702 4948.994958 3487.275823 4973.248781 3477.797046 C 5055.302298 3445.411224 5129.323706 3397.859359 5205.07753 3353.625066 M 4799.849696 3642.885747 C 4796.384864 3633.564949 4819.53624 3645.255441 4829.458259 3646.361298 C 4851.507189 3648.888972 4873.713611 3651.574626 4895.762541 3653.78634 C 4957.18456 3659.789566 5002.542359 3640.042113 5063.806886 3632.143133 M 4698.109633 3743.202804 C 4690.392508 3739.727252 4711.338991 3753.787438 4718.426147 3758.526827 C 4741.735016 3773.534891 4765.988839 3787.279118 4790.08517 3801.023344 C 4837.647861 3827.879879 4927.575997 3899.286667 4984.273246 3901.97232 M 3165.866493 3579.851879 C 3166.496463 3583.327431 3142.085148 3570.057143 3115.311447 3558.050692 C 3080.978113 3542.726669 3047.117256 3526.454768 3013.2564 3510.182867 C 2914.823677 3462.946962 2818.438354 3411.445606 2723.470463 3357.574556 C 2431.637126 3191.695957 2126.101954 3002.436375 1901.832837 2747.615251 M 2837.809914 3634.986766 C 2839.227345 3629.299499 2825.997987 3634.986766 2820.17077 3633.880908 C 2774.970464 3624.560111 2730.557619 3610.499925 2686.617252 3596.755698 C 2582.357311 3564.369876 2479.672295 3526.928707 2378.089724 3486.643904 C 2074.444461 3366.263435 1768.594304 3229.137127 1494.557603 3049.356321 M 3068.536217 3790.59669 C 3068.378725 3785.541342 3060.661599 3797.231833 3055.936828 3798.81163 C 3044.282394 3802.60314 3031.683005 3803.866977 3019.713586 3805.446774 C 2978.608081 3810.818081 2937.187591 3814.135653 2895.924594 3816.663327 C 2774.183002 3824.246348 2651.811441 3821.560695 2529.912356 3816.347367 C 2149.410822 3800.391426 1719.771673 3777.484381 1368.09124 3611.131843 M 422.349637 1118.05549 C 427.389393 1124.848613 434.791533 1106.680957 441.721197 1101.941568 C 462.352696 1087.407444 483.929149 1074.295135 505.820586 1061.656766 C 560.312942 1030.376801 618.270129 1003.836226 676.542301 980.297263 C 857.973496 907.152699 1049.799187 869.079611 1244.617232 858.021038 C 1509.834361 842.854995 1779.933753 827.057033 2045.623359 823.107542 C 2434.157004 817.262297 2700.791564 843.170954 3074.835911 707.624442 L 3077.985758 706.518584 C 3393.600441 633.68998 3571.409312 795.935048 3380.371083 1114.263979 C 3306.822153 1236.698183 3195.632549 1335.909383 3086.490346 1425.483826 C 2624.092786 1804.950869 2060.742625 2004.795086 1459.751792 1953.767669 C 1282.57289 1938.601626 1108.071359 1904.162069 935.302243 1862.297471 C 922.702855 1859.295858 772.140162 1831.333465 769.305299 1817.905198 M 4001.993416 3898.496769 C 4013.332866 3860.423681 4051.288524 3766.583788 4073.652438 3733.408068 C 4211.45825 3528.508503 4369.423084 3660.895423 4391.629507 3671.164098 M 4001.205954 3909.555342 C 4000.103508 3909.713322 3998.056107 3895.179197 3997.898615 3893.91536 C 3994.591275 3877.3275 3990.338981 3860.89762 3985.771703 3844.625719 C 3973.802284 3802.129202 3956.950602 3760.422582 3933.484241 3722.981413 C 3863.557634 3612.237701 3693.308396 3577.482185 3581.173838 3645.72938 " stroke="#5e6697" stroke-width="85" stroke-opacity="1" stroke-miterlimit="10"/><path fill="#e06cb9" d="M 233.960938 98.449219 C 233.902344 97.152344 219.703125 96.085938 217.335938 99.160156 C 216.691406 99.992188 224.054688 107.863281 226.59375 111.148438 C 228.285156 113.339844 234.078125 101.152344 233.960938 98.449219 Z M 144.351562 98.5625 C 142.839844 99.960938 143.507812 115.265625 146.722656 115.199219 C 149.9375 115.132812 164.027344 100.9375 163.628906 98.164062 C 163.238281 95.394531 146.875 96.234375 144.351562 98.5625 Z M 208.292969 153.121094 C 208.007812 153.445312 207.6875 153.742188 207.363281 154.023438 C 206.8125 154.496094 206.207031 154.964844 205.546875 155.273438 L 205.269531 155.347656 C 205.28125 155.554688 204.886719 155.1875 204.707031 155.085938 C 204.359375 154.890625 204.027344 154.667969 203.714844 154.421875 C 203.179688 154.007812 200.484375 151.59375 201.414062 150.824219 C 202.222656 150.15625 204.128906 150.535156 205.070312 150.578125 C 207.046875 150.671875 210.875 150.140625 208.292969 153.121094 " fill-opacity="1" fill-rule="evenodd"/></svg>